<svg width="30" height="30" viewBox="0 0 30 30" fill="none" stroke="currentColor" stroke-width="1.5" stroke-linecap="round" xmlns="http://www.w3.org/2000/svg"><path d="M8.55116 27.0194L8.05116 26.1533L8.05116 26.1533L8.55116 27.0194ZM7.4916 26.2227L6.49925 26.0992L6.49925 26.0992L7.4916 26.2227ZM6.65285 21.766L5.78073 22.2554L5.78682 22.266L6.65285 21.766ZM5.38661 19.5097L6.25872 19.0203L6.25263 19.0097L5.38661 19.5097ZM25.3118 17.3426L25.8118 18.2086L25.8118 18.2086L25.3118 17.3426ZM25.1678 16.0412L25.5755 15.1281L25.5755 15.1281L25.1678 16.0412ZM21.7662 13.0403L20.8938 13.5292L20.9002 13.5403L21.7662 13.0403ZM20.5641 10.8951L21.4365 10.4062L21.4301 10.3951L20.5641 10.8951ZM8.53643 7.64159L8.03643 6.77557L8.53643 7.64159ZM16.4821 26.9142L16.9821 27.7802L16.4821 26.9142ZM7.4916 26.2227L8.48395 26.3461C8.65852 24.9427 8.55119 23.054 7.51887 21.266L6.65285 21.766L5.78682 22.266C6.53993 23.5704 6.63755 24.9874 6.49925 26.0992L7.4916 26.2227ZM6.65285 21.766L7.5249 21.2766L6.25866 19.0203L5.38661 19.5097L4.51455 19.9992L5.7808 22.2554L6.65285 21.766ZM25.1678 16.0412L25.5755 15.1281C24.5687 14.6786 23.3975 13.8658 22.6322 12.5403L21.7662 13.0403L20.9002 13.5403C21.9326 15.3285 23.4858 16.3854 24.7602 16.9544L25.1678 16.0412ZM21.7662 13.0403L22.6386 12.5514L21.4364 10.4062L20.5641 10.8951L19.6917 11.3839L20.8938 13.5292L21.7662 13.0403ZM20.5641 10.8951L21.4301 10.3951C18.7175 5.69667 12.7226 4.07003 8.03643 6.77557L8.53643 7.64159L9.03643 8.50762C12.7582 6.35885 17.5332 7.64548 19.698 11.3951L20.5641 10.8951ZM25.3118 17.3426L25.8118 18.2086C26.4998 17.8114 26.6563 17.0743 26.5916 16.551C26.5272 16.0293 26.2169 15.4145 25.5755 15.1281L25.1678 16.0412L24.7602 16.9544C24.6842 16.9205 24.6438 16.873 24.6273 16.8478C24.6121 16.8245 24.6082 16.8081 24.6067 16.7961C24.6054 16.7851 24.6023 16.7463 24.6261 16.6864C24.6532 16.6186 24.7128 16.5337 24.8118 16.4766L25.3118 17.3426ZM5.38661 19.5097L6.25263 19.0097C4.1232 15.3215 5.37568 10.6212 9.03643 8.50762L8.53643 7.64159L8.03643 6.77557C3.41133 9.44587 1.84336 15.3727 4.52058 20.0097L5.38661 19.5097ZM8.55116 27.0194L8.05116 26.1533C8.15254 26.0948 8.25791 26.0865 8.32998 26.0977C8.3932 26.1075 8.42353 26.1295 8.43028 26.1347C8.43788 26.1406 8.449 26.1507 8.46079 26.1749C8.47359 26.201 8.49452 26.2612 8.48395 26.3461L7.4916 26.2227L6.49925 26.0992C6.41114 26.8076 6.79041 27.3954 7.20826 27.718C7.62674 28.041 8.35185 28.2891 9.05116 27.8854L8.55116 27.0194ZM25.3118 17.3426L24.8118 16.4766L8.05116 26.1533L8.55116 27.0194L9.05116 27.8854L25.8118 18.2086L25.3118 17.3426ZM18.1239 21.4925L17.2579 21.9925C18.0218 23.3155 17.534 25.1522 15.9821 26.0482L16.4821 26.9142L16.9821 27.7802C19.3836 26.3938 20.3659 23.3757 18.99 20.9925L18.1239 21.4925ZM16.4821 26.9142L15.9821 26.0482C14.4303 26.9441 12.5958 26.4482 11.8319 25.1252L10.9659 25.6252L10.0999 26.1252C11.4758 28.5084 14.5807 29.1667 16.9821 27.7802L16.4821 26.9142ZM9.54487 3.87802L8.67885 4.37802C9.16351 5.21749 8.87589 6.2909 8.03643 6.77557L8.53643 7.64159L9.03643 8.50762C10.8325 7.47067 11.4478 5.17407 10.4109 3.37802L9.54487 3.87802ZM8.53643 7.64159L8.03643 6.77557C7.19697 7.26023 6.12355 6.97261 5.63888 6.13315L4.77286 6.63315L3.90683 7.13315C4.94378 8.9292 7.24038 9.54457 9.03643 8.50762L8.53643 7.64159ZM4.77286 6.63315L5.63888 6.13315C5.15422 5.29368 5.44184 4.22027 6.2813 3.7356L5.7813 2.86958L5.2813 2.00355C3.48526 3.0405 2.86988 5.3371 3.90683 7.13315L4.77286 6.63315ZM5.7813 2.86958L6.2813 3.7356C7.12077 3.25094 8.19418 3.53856 8.67885 4.37802L9.54487 3.87802L10.4109 3.37802C9.37395 1.58197 7.07735 0.966602 5.2813 2.00355L5.7813 2.86958Z" /></svg>
