<svg width="18" height="18" viewBox="0 0 18 18" fill="currentColor" xmlns="http://www.w3.org/2000/svg">
<path d="M13.3507 11.7433C13.1313 11.808 12.8093 11.8153 12.4641 11.7653C12.0936 11.7115 11.7156 11.5983 11.3441 11.4313C12.0066 11.335 12.5205 11.3647 12.96 11.5204C13.0642 11.5573 13.2352 11.6559 13.3507 11.7433ZM9.65464 11.1357C9.62769 11.143 9.60114 11.1499 9.57472 11.1573C9.39648 11.2058 9.22305 11.2531 9.05592 11.2952L8.83056 11.3524C8.37723 11.4671 7.91373 11.5843 7.45594 11.7238C7.62991 11.3043 7.79155 10.8801 7.94982 10.4654C8.067 10.1584 8.18665 9.84478 8.3104 9.53523C8.37318 9.63891 8.4387 9.74263 8.50687 9.84663C8.81746 10.3197 9.20788 10.757 9.65464 11.1357ZM8.50152 6.40467C8.5309 6.92235 8.41921 7.42036 8.25537 7.89813C8.05354 7.30737 7.95949 6.655 8.21181 6.12832C8.27652 5.99332 8.32953 5.92114 8.36391 5.88348C8.41701 5.96547 8.48685 6.14889 8.50152 6.40467ZM6.13487 12.9624C6.02147 13.1653 5.90572 13.3552 5.78709 13.5345C5.50079 13.966 5.03257 14.4279 4.79204 14.4279C4.76837 14.4279 4.73973 14.4241 4.69787 14.3799C4.67093 14.3517 4.66662 14.3314 4.66792 14.3038C4.67603 14.1452 4.88621 13.8627 5.19068 13.6007C5.46703 13.3631 5.77939 13.1518 6.13487 12.9624ZM14.1166 11.7657C14.0798 11.2374 13.1903 10.8984 13.1816 10.8952C12.8377 10.7733 12.4642 10.7141 12.0396 10.7141C11.5852 10.7141 11.0952 10.7798 10.466 10.9269C9.9061 10.53 9.42244 10.0331 9.06109 9.48298C8.90152 9.23994 8.75806 8.99734 8.63301 8.76038C8.93829 8.03043 9.21319 7.24558 9.16324 6.36655C9.12297 5.66172 8.80513 5.18827 8.37291 5.18827C8.0764 5.18827 7.82112 5.40788 7.61353 5.84159C7.24323 6.61442 7.34056 7.60329 7.9027 8.78328C7.70025 9.25879 7.51215 9.75177 7.33008 10.229C7.10355 10.8224 6.87013 11.4346 6.60706 12.017C5.86931 12.3089 5.26322 12.663 4.75811 13.0976C4.42722 13.3818 4.02831 13.8163 4.00554 14.2698C3.99442 14.4834 4.06767 14.6793 4.2165 14.8363C4.37463 15.0029 4.57329 15.0907 4.79172 15.0909C5.51315 15.0909 6.2075 14.0997 6.33922 13.9009C6.60432 13.5013 6.85245 13.0556 7.09558 12.5415C7.70794 12.3201 8.36053 12.155 8.99305 11.9953L9.21958 11.9377C9.38986 11.8944 9.56685 11.8466 9.74838 11.7969C9.94048 11.745 10.1381 11.6911 10.339 11.6399C10.9885 12.053 11.6869 12.3224 12.3681 12.4213C12.9418 12.5047 13.4514 12.4563 13.7963 12.2765C14.1067 12.1149 14.1238 11.8654 14.1166 11.7657ZM15.5138 16.3093C15.5138 17.2769 14.6609 17.3366 14.4888 17.3385H3.48499C2.52081 17.3385 2.46275 16.4798 2.46091 16.3093L2.46078 1.69039C2.46078 0.721755 3.31524 0.66303 3.48486 0.661086H10.9182L10.9221 0.66501V3.56578C10.9221 4.14793 11.2741 5.2501 12.6069 5.2501H15.4889L15.5137 5.27481L15.5138 16.3093ZM14.8305 4.58892H12.6074C11.6435 4.58892 11.5852 3.73486 11.5839 3.56588V1.32888L14.8305 4.58892ZM16.1749 16.3093V5.00206L11.5839 0.39196V0.370511H11.5619L11.1932 0H3.48501C2.9021 0 1.7998 0.353401 1.7998 1.6907V16.3096C1.7998 16.8942 2.15213 18 3.48501 18H14.4898C15.0726 17.9999 16.1749 17.6464 16.1749 16.3093Z"/>
</svg>
