<svg width="24" height="24" viewBox="0 0 24 24" fill="none" stroke="white" stroke-width="2" stroke-linecap="round" xmlns="http://www.w3.org/2000/svg">
<path d="M19.2004 13.6857C20.4677 14.6326 21.6004 17.0166 21.6004 18.4856C21.6004 18.9432 21.2665 19.3142 20.8546 19.3142H20.4004M15.6004 9.80444C16.4202 9.33018 16.9718 8.44377 16.9718 7.42853C16.9718 6.41328 16.4202 5.52687 15.6004 5.05261M3.14616 19.3142H16.2832C16.6951 19.3142 17.029 18.9432 17.029 18.4856C17.029 15.609 14.6257 13.2771 9.71468 13.2771C4.80366 13.2771 2.40039 15.609 2.40039 18.4856C2.40039 18.9432 2.73428 19.3142 3.14616 19.3142ZM12.4575 7.42853C12.4575 8.94336 11.2295 10.1714 9.71468 10.1714C8.19984 10.1714 6.97182 8.94336 6.97182 7.42853C6.97182 5.91369 8.19984 4.68567 9.71468 4.68567C11.2295 4.68567 12.4575 5.91369 12.4575 7.42853Z" />
</svg>
