<svg width="122" height="38" viewBox="0 0 122 38" fill="none" xmlns="http://www.w3.org/2000/svg">
<path d="M117.459 27.3024H121.314C121.522 27.3024 121.626 27.4595 121.626 27.6167V29.6595C121.626 29.869 121.47 29.9738 121.314 29.9738H117.459C117.251 29.9738 117.147 29.8167 117.147 29.6595V27.6167C117.147 27.4071 117.303 27.3024 117.459 27.3024Z" fill="white"/>
<path d="M88.3968 12.269H90.7406C90.8447 12.269 90.9489 12.269 91.001 12.3738L99.9072 20.1262C100.063 20.2833 100.324 20.2833 100.48 20.1262L109.386 12.3738C109.491 12.3214 109.543 12.269 109.647 12.269H111.991C112.251 12.269 112.407 12.4786 112.407 12.6881V29.6071C112.407 29.869 112.199 30.0262 111.991 30.0262H110.063C109.803 30.0262 109.647 29.8167 109.647 29.6071V18.9214C109.647 18.5548 109.23 18.3452 108.918 18.6071L100.428 25.8881C100.272 26.0452 100.011 26.0452 99.8551 25.8881L91.3656 18.7643C91.1051 18.5024 90.6364 18.7643 90.6364 19.0786V36.7833C90.6364 37.0452 90.4281 37.2024 90.2197 37.2024H88.2926C88.0322 37.2024 87.876 36.9929 87.876 36.7833V12.7405C87.876 12.4786 88.0843 12.3214 88.2926 12.3214L88.3968 12.269Z" fill="white"/>
<path d="M56.1052 29.3976L64.4386 12.4785C64.4906 12.3214 64.6469 12.2166 64.8552 12.2166H66.8344C66.9906 12.2166 67.1469 12.3214 67.2511 12.4785L78.449 36.469C78.6052 36.7833 78.3969 37.0976 78.0323 37.0976H76.574C76.4177 37.0976 76.2615 36.9928 76.1573 36.8357L70.5844 25.4166C70.5323 25.2595 70.3761 25.1547 70.1677 25.1547H61.1052C60.949 25.1547 60.7927 25.2595 60.6886 25.4166L58.5011 29.7643C58.449 29.9214 58.2927 30.0262 58.0844 30.0262H56.3656C56.0531 30.0262 55.8448 29.6595 55.949 29.3976H56.1052ZM65.4281 16.1452L62.9281 21.0166C62.7719 21.3309 62.9802 21.6452 63.2927 21.6452H68.2406C68.5531 21.6452 68.7615 21.2786 68.6573 21.0166L66.2615 16.1452C66.1052 15.8309 65.6365 15.8309 65.4802 16.1452H65.4281Z" fill="white"/>
<path d="M18.2408 12.6881V15.3595C18.2408 15.6214 18.0325 15.7786 17.772 15.7786L10.272 15.6214C7.66787 15.7262 4.80329 16.9309 4.33454 19.1833C3.44912 23.269 7.14704 27.1452 14.647 29.5547C15.897 29.9738 15.1158 31.0738 13.9179 30.7071C13.6054 30.6024 -1.08213 26.8833 0.0637024 18.6071C0.844952 12.95 8.39704 12.2166 10.1158 12.2166C10.6366 12.2166 16.1575 12.2166 17.72 12.2166C17.9804 12.2166 18.1366 12.4262 18.1366 12.6357L18.2408 12.6881Z" fill="white"/>
<path d="M46.73 12.6881V15.3595C46.73 15.6214 46.5217 15.7786 46.2613 15.7786C43.605 15.7786 39.803 15.6214 38.7613 15.6214C36.2613 15.7262 33.2925 16.9309 32.8238 19.1833C31.9384 23.269 35.6363 27.1452 43.1363 29.5547C44.3863 29.9738 43.605 31.0738 42.4071 30.7071C42.0946 30.6024 27.4071 26.8833 28.553 18.6071C29.3342 12.95 36.8863 12.2166 38.605 12.2166C39.1259 12.2166 44.6467 12.2166 46.2092 12.2166C46.4696 12.2166 46.6259 12.4262 46.6259 12.6357L46.73 12.6881Z" fill="white"/>
<path d="M47.7197 27.3024H51.5739C51.7822 27.3024 51.8864 27.4595 51.8864 27.6167V29.6595C51.8864 29.869 51.7301 29.9738 51.5739 29.9738H47.7197C47.5114 29.9738 47.4072 29.8167 47.4072 29.6595V27.6167C47.4072 27.4071 47.5635 27.3024 47.7197 27.3024Z" fill="white"/>
<path d="M79.23 27.3024H83.0841C83.2925 27.3024 83.3967 27.4595 83.3967 27.6167V29.6595C83.3967 29.869 83.2404 29.9738 83.0841 29.9738H79.23C79.0217 29.9738 78.9175 29.8167 78.9175 29.6595V27.6167C78.9175 27.4071 79.0737 27.3024 79.23 27.3024Z" fill="white"/>
<path d="M20.272 27.3024H24.1261C24.3345 27.3024 24.4386 27.4595 24.4386 27.6167V29.6595C24.4386 29.869 24.2824 29.9738 24.1261 29.9738H20.272C20.0636 29.9738 19.9595 29.8167 19.9595 29.6595V27.6167C19.9595 27.4071 20.1157 27.3024 20.272 27.3024Z" fill="white"/>
<path d="M86.4696 13.1595C87.0946 17.0881 83.2925 20.3881 79.3862 20.3881C75.6883 20.3881 71.8862 17.0357 72.3029 13.1595C72.7196 9.44047 77.1466 8.81189 79.3862 0.797607C80.48 7.55475 85.8446 9.38809 86.4696 13.1595Z" fill="white"/>
<path d="M85.3237 12.4785C85.3237 13.6833 84.3862 14.3119 82.9799 14.3643C79.2299 14.469 79.3862 9.96425 79.3862 8.75949C79.3862 5.45949 79.3862 5.82615 79.3862 2.89282C79.3862 2.73568 79.5945 2.73568 79.5945 2.89282C81.0008 8.65473 85.4278 9.64996 85.3237 12.5309V12.4785Z" fill="#0076D6"/>
</svg>
