<svg width="80" height="17" viewBox="0 0 80 17" fill="none" xmlns="http://www.w3.org/2000/svg">
<path d="M10.5015 4.03662H0V6.99228H3.56425V16.3813H6.95471V6.99228H10.5015V4.03662Z" fill="#0F191E"/>
<path d="M15.856 16.3813V12.5908H17.456L18.795 16.3813H22.2894L20.5156 11.8434C21.0721 11.4494 21.5067 10.942 21.8197 10.3219C22.1327 9.70194 22.2891 9.03248 22.2891 8.31358C22.2891 7.79205 22.1847 7.27354 21.9762 6.7575C21.7675 6.242 21.4806 5.78378 21.1155 5.38389C20.7503 4.98424 20.3126 4.65973 19.8028 4.41043C19.2927 4.16121 18.7362 4.03662 18.1336 4.03662H12.4655V16.3813H15.856ZM15.856 6.84635H17.9076C18.1162 6.84635 18.3248 6.95933 18.5335 7.1853C18.7421 7.41141 18.8465 7.88483 18.8465 8.31361C18.8465 8.7311 18.7567 9.17659 18.5769 9.40832C18.3972 9.64028 18.2031 9.75616 17.9945 9.75616H15.856V6.84635Z" fill="#0F191E"/>
<path d="M27.6341 16.3813V4.03662H24.2435V16.3813H27.6341Z" fill="#0F191E"/>
<path d="M51.0041 16.3813V13.4253H47.3896V4.03662H43.9991V16.3813H51.0041Z" fill="#0F191E"/>
<path d="M64.2568 10.1654C64.2568 6.73242 61.4738 3.94971 58.0412 3.94971C54.6082 3.94971 51.8253 6.73242 51.8253 10.1654C51.8253 13.5981 54.6082 16.3813 58.0412 16.3813C61.4738 16.3813 64.2568 13.5981 64.2568 10.1654ZM61.294 10.1654C61.294 11.962 59.8375 13.4186 58.0412 13.4186C56.2445 13.4186 54.788 11.962 54.788 10.1654C54.788 8.36874 56.2445 6.91246 58.0412 6.91246C59.8375 6.91249 61.294 8.36874 61.294 10.1654Z" fill="#0F191E"/>
<path d="M42.0277 16.3826V12.2162V11.1847V9.27998H36.3668V9.80909V12.2162V12.2295H38.5686C37.9523 13.0213 36.9927 13.5332 35.9117 13.5332C34.0519 13.5332 32.5444 12.0252 32.5444 10.1654C32.5444 8.30557 34.0519 6.79787 35.9117 6.79787C36.6672 6.79787 37.3625 7.04881 37.9235 7.46908L40.2728 5.68842C40.2214 5.63473 40.1787 5.57493 40.1242 5.523C39.7764 5.19264 39.3856 4.90884 38.9509 4.67124C38.5161 4.43378 38.0437 4.25401 37.5338 4.13225C37.0237 4.01052 36.4906 3.94971 35.9342 3.94971C35.0415 3.94971 34.21 4.10903 33.439 4.4279C32.6681 4.74677 31.9987 5.18136 31.4311 5.73183C30.863 6.28243 30.4165 6.93141 30.0923 7.67905C29.7675 8.42667 29.6055 9.23522 29.6055 10.1047C29.6055 11.113 29.7675 12.0114 30.0923 12.7995C30.4165 13.5881 30.8513 14.2543 31.3964 14.7989C31.941 15.3438 32.5787 15.7582 33.3087 16.0422C34.039 16.3263 34.8041 16.4682 35.6039 16.4682C36.7513 16.4682 37.7656 16.0973 38.6466 15.3555V16.3813H38.655V16.3825H42.0277V16.3826Z" fill="#0F191E"/>
<path d="M77.5162 10.1654C77.5162 6.73242 74.7336 3.94971 71.3004 3.94971C67.8677 3.94971 65.0848 6.73242 65.0848 10.1654C65.0848 13.5981 67.8677 16.3813 71.3004 16.3813C74.7336 16.3813 77.5162 13.5981 77.5162 10.1654ZM74.5535 10.1654C74.5535 11.962 73.0972 13.4186 71.3004 13.4186C69.504 13.4186 68.0475 11.962 68.0475 10.1654C68.0475 8.36874 69.504 6.91246 71.3004 6.91246C73.0972 6.91249 74.5535 8.36874 74.5535 10.1654Z" fill="#0F191E"/>
<path d="M69.709 1.25801C69.709 1.9528 69.1456 2.51617 68.4507 2.51617C67.7561 2.51617 67.1927 1.9528 67.1927 1.25801C67.1927 0.563337 67.7561 0 68.4507 0C69.1456 0 69.709 0.563337 69.709 1.25801Z" fill="#0F191E"/>
<path d="M74.8913 1.25801C74.8913 1.9528 74.328 2.51617 73.6333 2.51617C72.9384 2.51617 72.3751 1.9528 72.3751 1.25801C72.3751 0.563337 72.9384 0 73.6333 0C74.328 0 74.8913 0.563337 74.8913 1.25801Z" fill="#0F191E"/>
<path d="M78.3235 15.7549C78.3435 15.8226 78.3725 15.8858 78.4094 15.9445C78.4464 16.0032 78.4908 16.0569 78.543 16.1055C78.5949 16.1542 78.6524 16.1957 78.7155 16.2304C78.7789 16.2648 78.8469 16.2916 78.9193 16.3108C78.9914 16.3298 79.0671 16.3395 79.1458 16.3395C79.2244 16.3395 79.3001 16.3298 79.373 16.3108C79.4457 16.2915 79.5136 16.2648 79.577 16.2304C79.6402 16.1957 79.6979 16.1542 79.7498 16.1055C79.8017 16.0568 79.8462 16.0031 79.8834 15.9445C79.9201 15.8858 79.9491 15.8224 79.9696 15.7545C79.9898 15.6863 80 15.6158 80 15.5429C80 15.4695 79.9898 15.3986 79.9696 15.3307C79.9491 15.2628 79.9201 15.1991 79.8834 15.1399C79.8462 15.081 79.8018 15.0273 79.7498 14.9783C79.6979 14.9296 79.6402 14.8882 79.577 14.8535C79.5136 14.8191 79.4457 14.7923 79.373 14.7731C79.3001 14.7541 79.2244 14.7444 79.1458 14.7444C79.0671 14.7444 78.9914 14.7541 78.9193 14.7731C78.8469 14.7923 78.7789 14.8191 78.7155 14.8535C78.6524 14.8882 78.5949 14.9296 78.543 14.9783C78.4908 15.0273 78.4464 15.081 78.4094 15.1399C78.3725 15.1991 78.3435 15.2627 78.3235 15.3307C78.303 15.3986 78.2928 15.4695 78.2928 15.5429C78.2928 15.6166 78.303 15.6873 78.3235 15.7549ZM78.4731 15.3627C78.4891 15.3049 78.5123 15.2513 78.5422 15.2011C78.5724 15.1509 78.6084 15.1057 78.6504 15.0648C78.6923 15.0241 78.739 14.9894 78.7909 14.9601C78.8424 14.9309 78.8983 14.9082 78.958 14.8925C79.0177 14.8767 79.0803 14.8687 79.1458 14.8687C79.2112 14.8687 79.2741 14.8767 79.3341 14.8925C79.3943 14.9082 79.4502 14.9309 79.5019 14.9601C79.5536 14.9894 79.6005 15.0241 79.6434 15.0648C79.6864 15.1057 79.7226 15.1509 79.7528 15.2011C79.7828 15.2513 79.8062 15.3049 79.8225 15.3627C79.8392 15.4201 79.8477 15.4803 79.8477 15.5429C79.8477 15.6368 79.8295 15.7242 79.7933 15.8056C79.7568 15.887 79.7071 15.9577 79.6439 16.0181C79.581 16.0781 79.5066 16.1255 79.4207 16.16C79.3353 16.1947 79.2437 16.2119 79.1458 16.2119C79.0477 16.2119 78.9565 16.1947 78.8719 16.16C78.787 16.1255 78.7133 16.0781 78.6504 16.0181C78.5875 15.9577 78.5383 15.887 78.5023 15.8056C78.4666 15.7242 78.4486 15.6369 78.4486 15.5429C78.4486 15.4803 78.4569 15.4201 78.4731 15.3627ZM79.0801 15.6738C79.0991 15.6738 79.1136 15.6765 79.1233 15.6818C79.133 15.6875 79.1415 15.695 79.1493 15.705L79.3158 15.9894C79.3296 16.0131 79.3538 16.0249 79.3887 16.0249H79.6267L79.4174 15.6933C79.406 15.6748 79.3942 15.658 79.3827 15.6443C79.3712 15.63 79.3568 15.6183 79.3388 15.6089C79.4137 15.5867 79.4686 15.5517 79.5041 15.5035C79.5395 15.4558 79.5573 15.3998 79.5573 15.3357C79.5573 15.2455 79.5238 15.1764 79.4566 15.1282C79.3897 15.08 79.2841 15.0558 79.14 15.0558H78.7687V16.0249H79.0162V15.6738H79.0801ZM79.0162 15.2308H79.14C79.1755 15.2308 79.2044 15.2336 79.2272 15.2388C79.2499 15.2443 79.2676 15.2525 79.2804 15.2638C79.2933 15.275 79.3018 15.289 79.3066 15.306C79.3111 15.3227 79.3133 15.3425 79.3133 15.3647C79.3133 15.3877 79.3106 15.4086 79.3053 15.4263C79.2998 15.4443 79.2901 15.4595 79.2759 15.4716C79.2616 15.484 79.2419 15.493 79.2162 15.4993C79.1909 15.5055 79.1585 15.5085 79.119 15.5085H79.0162V15.2308Z" fill="#0F191E"/>
</svg>
